<?xml version="1.0" encoding="UTF-8"?>
<!DOCTYPE svg PUBLIC "-//W3C//DTD SVG 1.1//EN" "http://www.w3.org/Graphics/SVG/1.1/DTD/svg11.dtd">
<!-- Creator: CorelDRAW -->
<svg xmlns="http://www.w3.org/2000/svg" xml:space="preserve" width="254mm" height="254mm" version="1.1" style="shape-rendering:geometricPrecision; text-rendering:geometricPrecision; image-rendering:optimizeQuality; fill-rule:evenodd; clip-rule:evenodd"
viewBox="0 0 25400 25400"
 xmlns:xlink="http://www.w3.org/1999/xlink"
 xmlns:xodm="http://www.corel.com/coreldraw/odm/2003">
 <defs>
  <style type="text/css">
   <![CDATA[
    .str0 {stroke:#373535;stroke-width:20;stroke-miterlimit:22.9256}
    .fil1 {fill:white}
    .fil0 {fill:black}
   ]]>
  </style>
 </defs>
 <rect class="fil0" width="25400" height="25400"/>
 <g id="Capa_x0020_1">
  <metadata id="CorelCorpID_0Corel-Layer"/>
  <g id="_105553132253984">
   <path class="fil1 str0" d="M12885.2 10427.81l3755.77 0 -16.91 806.41c-981.24,0 -2351.59,-17.14 -2977.56,-17.14 0,291.67 -152.26,1269.67 490.64,1269.67 693.62,0 1505.68,17.16 2503.83,0 490.63,0 456.78,-463.26 456.78,-463.26l778.23 0c0,205.89 0,343.15 -169.19,651.99 -135.33,274.53 -659.79,600.54 -913.56,600.54 -253.77,0 -1962.47,17.14 -2791.45,0 -862.81,-17.17 -1099.66,-840.74 -1099.66,-1046.64 -16.92,-960.83 -16.92,-1801.57 -16.92,-1801.57z"/>
   <path class="fil1 str0" d="M14103.31 8360.54c1251.91,0 2503.83,0 3755.76,0 422.94,0 558.29,186.09 761.31,439.86l2588.43 3400.49 1065.83 -1776.38 879.71 0 -1657.94 2859.13 -422.95 0 -3180.56 -4144.89c-930.49,0 -2486.92,-16.91 -3400.49,-16.91 -795.13,-16.92 -795.13,152.26 -812.06,795.13l-778.23 0c0,-524.46 236.87,-1539.53 1201.19,-1556.43z"/>
  </g>
 </g>
</svg>
