<?xml version="1.0" encoding="UTF-8"?>
<!DOCTYPE svg PUBLIC "-//W3C//DTD SVG 1.1//EN" "http://www.w3.org/Graphics/SVG/1.1/DTD/svg11.dtd">
<!-- Creator: CorelDRAW -->
<svg xmlns="http://www.w3.org/2000/svg" xml:space="preserve" width="254mm" height="254mm" version="1.1" style="shape-rendering:geometricPrecision; text-rendering:geometricPrecision; image-rendering:optimizeQuality; fill-rule:evenodd; clip-rule:evenodd"
viewBox="0 0 25400 25400"
 xmlns:xlink="http://www.w3.org/1999/xlink"
 xmlns:xodm="http://www.corel.com/coreldraw/odm/2003">
 <defs>
  <style type="text/css">
   <![CDATA[
    .str0 {stroke:#373535;stroke-width:20;stroke-miterlimit:22.9256}
    .fil0 {fill:#373535}
   ]]>
  </style>
 </defs>
 <g id="Capa_x0020_1">
  <metadata id="CorelCorpID_0Corel-Layer"/>
  <g id="_105553117721248">
   <path class="fil0 str0" d="M463.02 9980.27l9086.4 0 -40.89 1950.97c-2373.95,0 -5689.25,-41.48 -7203.67,-41.48 0,705.66 -368.37,3071.75 1186.99,3071.75 1678.11,0 3642.73,41.52 6057.57,0 1187,0 1105.11,-1120.78 1105.11,-1120.78l1882.78 0c0,498.12 0,830.19 -409.31,1577.38 -327.43,664.18 -1596.26,1452.89 -2210.21,1452.89 -613.95,0 -4747.83,41.48 -6753.41,0 -2087.41,-41.53 -2660.41,-2034.02 -2660.41,-2532.15 -40.95,-2324.56 -40.95,-4358.58 -40.95,-4358.58z"/>
   <path class="fil0 str0" d="M3410.01 4978.88c3028.78,0 6057.57,0 9086.4,0 1023.21,0 1350.68,450.21 1841.84,1064.16l6262.25 8226.87 2578.58 -4297.62 2128.31 0 -4011.1 6917.14 -1023.26 0 -7694.77 -10027.82c-2251.16,0 -6016.68,-40.89 -8226.88,-40.89 -1923.68,-40.95 -1923.68,368.36 -1964.63,1923.68l-1882.78 0c0,-1268.84 573.04,-3724.62 2906.04,-3765.52z"/>
  </g>
 </g>
</svg>
